<svg width="19" height="17" viewBox="0 0 19 17" fill="none" xmlns="http://www.w3.org/2000/svg">
<path d="M1.78906 13.7344C1.23177 13.7344 0.791667 13.5755 0.46875 13.2578C0.151042 12.9349 -0.0078125 12.4922 -0.0078125 11.9297V2.5625C-0.0078125 2 0.151042 1.5599 0.46875 1.24219C0.791667 0.924479 1.23177 0.765625 1.78906 0.765625H16.8125C17.375 0.765625 17.8151 0.924479 18.1328 1.24219C18.4557 1.5599 18.6172 2 18.6172 2.5625V11.9297C18.6172 12.4922 18.4557 12.9349 18.1328 13.2578C17.8151 13.5755 17.375 13.7344 16.8125 13.7344H1.78906ZM1.8125 12.4766H16.7969C16.9688 12.4766 17.1042 12.4271 17.2031 12.3281C17.3073 12.224 17.3594 12.0859 17.3594 11.9141V2.58594C17.3594 2.40885 17.3073 2.27083 17.2031 2.17188C17.1042 2.07292 16.9688 2.02344 16.7969 2.02344H1.8125C1.64062 2.02344 1.5026 2.07292 1.39844 2.17188C1.29948 2.27083 1.25 2.40885 1.25 2.58594V11.9141C1.25 12.0859 1.29948 12.224 1.39844 12.3281C1.5026 12.4271 1.64062 12.4766 1.8125 12.4766ZM6.83594 15.5938V13.6328H11.7734V15.5938H6.83594ZM6.78906 16.5078C6.61719 16.5078 6.46875 16.4453 6.34375 16.3203C6.21875 16.2005 6.15625 16.0521 6.15625 15.875C6.15625 15.6979 6.21875 15.5469 6.34375 15.4219C6.46875 15.3021 6.61719 15.2422 6.78906 15.2422H11.8203C11.9922 15.2422 12.138 15.3021 12.2578 15.4219C12.3828 15.5469 12.4453 15.6979 12.4453 15.875C12.4453 16.0521 12.3828 16.2005 12.2578 16.3203C12.138 16.4453 11.9922 16.5078 11.8203 16.5078H6.78906Z" fill="#1D7BFF"/>
</svg>
